<mxfile host="app.diagrams.net" modified="2025-09-30T10:15:06.283132" agent="Python" version="24.7.10">
  <diagram id="diag1" name="Application Cooperation">
    <mxGraphModel>
      <root>
        <mxCell id="0" />
        <mxCell id="1" parent="0" />
<mxCell id="app1" value="Application Component\nAPI Lançamentos" style="rounded=1;whiteSpace=wrap;html=1;fillColor=#93C5FD;strokeColor=#1C1C1E;fontSize=12;" vertex="1" parent="1" x="60" y="80" w="180" h="60" />
<mxCell id="app2" value="Application Component\nConsolidador (Functions)" style="rounded=1;whiteSpace=wrap;html=1;fillColor=#93C5FD;strokeColor=#1C1C1E;fontSize=12;" vertex="1" parent="1" x="340" y="80" w="220" h="60" />
<mxCell id="svcA" value="Application Service\nRegistro Lançamentos" style="rounded=1;whiteSpace=wrap;html=1;fillColor=#93C5FD;strokeColor=#1C1C1E;fontSize=12;" vertex="1" parent="1" x="60" y="20" w="180" h="40" />
<mxCell id="svcB" value="Application Service\nConsulta Consolidado" style="rounded=1;whiteSpace=wrap;html=1;fillColor=#93C5FD;strokeColor=#1C1C1E;fontSize=12;" vertex="1" parent="1" x="340" y="20" w="220" h="40" />
<mxCell id="data1" value="Data Object\nLancamento" style="rounded=1;whiteSpace=wrap;html=1;fillColor=#93C5FD;strokeColor=#1C1C1E;fontSize=12;" vertex="1" parent="1" x="60" y="170" w="180" h="50" />
<mxCell id="data2" value="Data Object\nSaldoDiario" style="rounded=1;whiteSpace=wrap;html=1;fillColor=#93C5FD;strokeColor=#1C1C1E;fontSize=12;" vertex="1" parent="1" x="340" y="170" w="220" h="50" />
<mxCell id="flow" value="Flow\nEventoLancamento" style="edgeStyle=orthogonalEdgeStyle;rounded=0;orthogonalLoop=1;jettySize=auto;html=1;" edge="1" parent="1" source="app1" target="app2" />
<mxCell id="s1" value="" style="edgeStyle=orthogonalEdgeStyle;rounded=0;orthogonalLoop=1;jettySize=auto;html=1;" edge="1" parent="1" source="app1" target="svcA" />
<mxCell id="s2" value="" style="edgeStyle=orthogonalEdgeStyle;rounded=0;orthogonalLoop=1;jettySize=auto;html=1;" edge="1" parent="1" source="app2" target="svcB" />
<mxCell id="a1" value="Access" style="edgeStyle=orthogonalEdgeStyle;rounded=0;orthogonalLoop=1;jettySize=auto;html=1;" edge="1" parent="1" source="app1" target="data1" />
<mxCell id="a2" value="Access" style="edgeStyle=orthogonalEdgeStyle;rounded=0;orthogonalLoop=1;jettySize=auto;html=1;" edge="1" parent="1" source="app2" target="data2" />
      </root>
    </mxGraphModel>
  </diagram>
</mxfile>